<?xml version="1.0" standalone="no"?>
<!DOCTYPE svg PUBLIC "-//W3C//DTD SVG 20010904//EN"
 "http://www.w3.org/TR/2001/REC-SVG-20010904/DTD/svg10.dtd">
<svg version="1.0" xmlns="http://www.w3.org/2000/svg"
 width="1648.000000pt" height="1648.000000pt" viewBox="0 0 1648.000000 1648.000000"
 preserveAspectRatio="xMidYMid meet">

<g transform="translate(0.000000,1648.000000) scale(0.100000,-0.100000)"
fill="#000000" stroke="none">
<path d="M7760 16444 c-150 -11 -427 -40 -560 -59 -481 -68 -991 -174 -1300
-272 -47 -15 -87 -27 -90 -28 -3 -1 -17 -7 -32 -13 -14 -6 -66 -23 -115 -38
-181 -55 -535 -188 -683 -257 -41 -19 -156 -72 -255 -117 -99 -45 -209 -98
-245 -118 -141 -77 -409 -227 -490 -275 -289 -172 -823 -558 -1070 -774 -14
-12 -47 -41 -75 -64 -184 -152 -642 -610 -794 -794 -23 -27 -56 -67 -74 -89
-18 -21 -41 -48 -53 -60 -78 -80 -386 -498 -559 -760 -196 -296 -428 -714
-567 -1021 -60 -132 -118 -258 -128 -280 -43 -91 -144 -364 -210 -570 -40
-121 -74 -227 -77 -235 -4 -8 -7 -17 -8 -20 -1 -3 -4 -12 -8 -20 -25 -63 -131
-490 -171 -695 -36 -182 -82 -470 -106 -665 -51 -411 -54 -462 -54 -985 0
-493 2 -545 39 -870 31 -267 89 -627 140 -871 46 -218 129 -546 152 -604 4 -8
7 -17 8 -20 1 -3 4 -12 8 -20 3 -8 27 -82 53 -165 70 -223 219 -628 243 -660
4 -5 18 -35 31 -65 151 -362 418 -857 654 -1215 159 -240 474 -667 569 -770
30 -33 78 -89 106 -125 165 -206 633 -670 871 -862 25 -20 65 -55 90 -78 133
-124 743 -559 990 -707 193 -115 548 -307 682 -369 496 -228 667 -296 1023
-408 83 -25 157 -50 165 -55 21 -11 167 -53 335 -95 387 -96 815 -171 1265
-221 431 -48 1131 -47 1575 0 404 44 884 127 1217 210 162 41 359 96 377 105
9 5 113 40 231 78 295 95 467 163 800 314 351 160 763 386 1065 585 206 136
570 399 695 503 403 333 768 690 1090 1065 267 312 650 856 846 1202 184 325
225 403 314 598 48 105 102 222 120 260 65 139 203 505 255 680 15 50 31 95
35 100 5 6 26 73 48 150 146 505 261 1121 309 1645 14 155 18 296 18 685 0
503 -10 693 -52 990 -8 61 -17 121 -18 135 -55 387 -164 896 -264 1225 -94
311 -273 802 -341 933 -10 20 -59 125 -108 232 -90 197 -121 256 -296 568
-110 196 -124 220 -286 462 -122 184 -199 295 -223 320 -8 8 -66 85 -130 170
-294 394 -741 862 -1187 1242 -203 172 -533 417 -810 600 -210 140 -331 211
-690 409 -281 154 -912 419 -1240 519 -58 18 -109 35 -115 38 -5 4 -12 7 -15
8 -3 0 -12 4 -20 7 -33 14 -312 89 -468 126 -271 64 -570 119 -902 166 -481
69 -1082 92 -1530 59z m1094 -119 c296 -22 544 -53 801 -99 364 -66 1025 -234
1185 -303 19 -8 87 -33 150 -55 131 -45 391 -145 495 -190 117 -51 646 -313
715 -355 36 -22 128 -77 205 -123 554 -328 1086 -743 1565 -1220 636 -632
1149 -1344 1540 -2135 126 -255 210 -436 210 -451 0 -2 -38 -4 -85 -4 -50 0
-85 -4 -85 -10 0 -6 -62 -10 -165 -10 -112 0 -165 3 -165 11 0 8 -71 9 -247 4
-377 -9 -406 -10 -580 0 -122 6 -163 5 -163 -3 0 -8 -21 -12 -57 -12 -32 0
-92 -9 -133 -20 -41 -11 -92 -20 -112 -20 -21 0 -38 -4 -38 -10 0 -5 -22 -10
-50 -10 -29 0 -50 -5 -50 -11 0 -6 -14 -9 -32 -7 l-33 3 -7 95 c-6 84 -22 150
-58 235 -4 11 -25 74 -46 140 -20 66 -41 122 -46 123 -4 2 -8 10 -8 18 0 17
-41 98 -52 102 -4 2 -8 15 -8 28 0 13 -4 24 -10 24 -5 0 -10 9 -10 20 0 11 -4
20 -9 20 -5 0 -14 14 -21 30 -7 17 -16 30 -21 30 -5 0 -9 6 -9 13 0 7 -15 29
-32 49 -18 20 -53 60 -78 89 -94 112 -270 278 -385 363 -66 49 -132 102 -148
118 -15 15 -34 28 -42 28 -8 0 -15 3 -15 8 0 4 -15 13 -32 21 -18 8 -51 22
-72 32 -22 11 -46 19 -53 19 -7 0 -13 3 -13 8 0 4 -10 12 -23 18 -50 24 -223
117 -237 128 -8 7 -27 18 -42 26 -16 7 -28 17 -28 22 0 4 -9 8 -20 8 -11 0
-20 5 -20 10 0 6 -9 10 -19 10 -11 0 -23 5 -26 10 -3 6 -19 10 -35 10 -16 0
-32 5 -35 10 -3 6 -26 10 -50 10 -24 0 -45 3 -47 8 -4 9 -93 43 -130 49 -16 3
-28 9 -28 14 0 5 -13 9 -30 9 -16 0 -30 4 -30 9 0 4 -15 11 -32 14 -38 7 -158
31 -238 49 -30 6 -60 15 -65 19 -23 17 -153 30 -235 24 -132 -11 -217 -7 -297
15 -54 15 -104 20 -188 20 -65 0 -116 4 -120 10 -3 6 -19 10 -35 10 -15 0 -30
5 -32 12 -3 8 -67 13 -214 18 -123 4 -221 11 -237 18 -16 7 -41 12 -57 12 -16
0 -32 5 -35 10 -3 6 -42 10 -86 10 -46 0 -79 4 -79 10 0 6 -6 10 -13 10 -8 0
-27 6 -43 14 -16 8 -51 24 -78 36 -60 27 -320 282 -351 345 -11 22 -28 48 -37
59 -10 11 -18 26 -18 33 0 7 -4 13 -9 13 -5 0 -13 9 -16 20 -4 11 -17 32 -31
45 -13 13 -24 31 -24 40 0 8 -3 15 -8 15 -4 0 -13 15 -21 33 -8 17 -22 43 -31
57 -33 46 -83 154 -92 195 -5 22 -13 63 -18 90 -9 54 -35 139 -50 167 -6 10
-10 27 -10 38 0 11 -4 20 -10 20 -5 0 -10 15 -10 34 0 19 -4 37 -9 40 -14 9
-37 184 -48 373 -3 57 -9 100 -14 97 -5 -3 -9 105 -9 253 0 142 -4 252 -8 246
-6 -9 -18 -6 -47 14 -68 46 -195 31 -195 -24 0 -13 -8 -36 -17 -50 -16 -24
-18 -54 -18 -233 0 -196 24 -543 45 -647 32 -161 55 -237 91 -305 5 -10 9 -31
9 -47 0 -17 5 -33 10 -36 6 -3 10 -24 10 -45 0 -50 48 -208 70 -230 5 -5 35
-58 72 -130 13 -25 25 -47 28 -50 3 -3 14 -22 25 -42 11 -21 22 -38 26 -38 3
0 16 -20 29 -45 18 -35 21 -48 12 -57 -9 -9 -15 -9 -24 0 -7 7 -22 12 -34 12
-25 0 -104 -39 -104 -52 0 -4 -7 -8 -15 -8 -8 0 -15 -4 -15 -10 0 -5 -7 -10
-15 -10 -8 0 -15 -4 -15 -9 0 -5 -13 -14 -30 -21 -16 -7 -30 -16 -30 -21 0 -5
-9 -9 -19 -9 -11 0 -22 -4 -25 -9 -3 -5 -16 -11 -28 -14 -58 -13 -185 -48
-203 -56 -35 -16 -67 -23 -150 -31 -44 -5 -116 -15 -160 -22 -105 -17 -503
-16 -565 1 -25 7 -62 15 -82 18 -21 3 -38 9 -38 14 0 5 -15 9 -32 9 -75 0
-201 51 -263 104 -16 14 -36 26 -42 26 -7 0 -13 5 -13 11 0 5 -4 7 -10 4 -24
-15 -6 80 20 105 5 5 25 46 78 160 28 61 85 228 112 330 7 25 16 55 21 68 5
13 9 34 9 47 0 14 5 25 10 25 6 0 10 18 10 39 0 22 4 41 9 43 5 2 14 89 20
193 7 105 16 228 21 275 6 47 10 99 9 115 0 26 -2 27 -9 10 -5 -13 -9 27 -9
107 -1 73 -5 128 -11 130 -5 2 -10 24 -11 51 -1 26 -6 47 -11 47 -4 0 -8 13
-8 28 0 33 -20 55 -70 75 -58 25 -118 -4 -142 -69 -8 -23 -15 -30 -20 -21 -5
6 -6 -31 -3 -83 14 -229 8 -394 -24 -711 -8 -78 -38 -195 -62 -241 -5 -10 -9
-31 -9 -48 0 -16 -4 -30 -10 -30 -5 0 -10 -13 -10 -29 0 -17 -4 -33 -10 -36
-5 -3 -10 -17 -10 -30 0 -13 -4 -27 -10 -30 -5 -3 -10 -15 -10 -26 0 -10 -4
-27 -9 -37 -5 -9 -17 -35 -26 -57 -33 -77 -70 -151 -112 -223 -24 -40 -43 -77
-43 -82 0 -6 -4 -10 -10 -10 -5 0 -10 -6 -10 -12 0 -7 -14 -29 -30 -48 -16
-19 -30 -39 -30 -43 0 -13 -145 -153 -179 -173 -17 -10 -31 -22 -31 -26 0 -4
-7 -8 -15 -8 -8 0 -15 -4 -15 -10 0 -5 -7 -10 -15 -10 -8 0 -15 -4 -15 -10 0
-5 -8 -10 -17 -10 -9 0 -24 -7 -34 -16 -10 -9 -36 -18 -58 -21 -23 -3 -41 -10
-41 -14 0 -5 -9 -9 -19 -9 -11 0 -44 -13 -73 -29 -126 -69 -133 -71 -188 -71
-86 0 -330 -40 -375 -62 -12 -5 -80 -7 -160 -4 -392 16 -428 17 -438 7 -6 -6
-32 -11 -58 -11 -26 0 -51 -4 -54 -10 -3 -5 -27 -10 -53 -10 -26 0 -108 -9
-182 -20 -74 -11 -147 -20 -162 -20 -16 0 -28 -4 -28 -10 0 -5 -11 -10 -24
-10 -14 0 -27 -4 -30 -9 -3 -4 -43 -11 -88 -15 -89 -7 -253 -38 -264 -49 -4
-4 -20 -7 -35 -7 -15 0 -31 -4 -34 -10 -3 -5 -24 -10 -45 -10 -44 0 -103 -15
-235 -58 -91 -30 -261 -80 -302 -89 -13 -3 -23 -9 -23 -14 0 -5 -11 -9 -25 -9
-14 0 -53 -13 -87 -30 -34 -16 -70 -30 -80 -30 -10 0 -18 -4 -18 -10 0 -5 -9
-10 -20 -10 -11 0 -20 -4 -20 -10 0 -5 -5 -10 -10 -10 -15 0 -105 -43 -108
-52 -2 -4 -9 -8 -15 -8 -7 0 -25 -10 -40 -23 -81 -63 -177 -144 -219 -183 -26
-24 -49 -44 -52 -44 -7 0 -57 -43 -89 -75 -25 -26 -127 -179 -127 -192 0 -5
-8 -18 -17 -29 -10 -10 -24 -31 -32 -46 -8 -15 -22 -37 -33 -47 -10 -11 -18
-25 -18 -31 0 -5 -3 -10 -8 -10 -4 0 -16 -17 -27 -37 -11 -20 -25 -42 -32 -48
-6 -7 -34 -59 -61 -116 -47 -96 -64 -138 -95 -226 -7 -18 -15 -33 -19 -33 -5
0 -8 -9 -8 -20 0 -11 -4 -20 -10 -20 -5 0 -10 -8 -10 -18 0 -10 -13 -44 -30
-77 -16 -33 -30 -70 -30 -82 0 -13 -4 -23 -9 -23 -5 0 -12 -19 -15 -42 -4 -24
-10 -65 -14 -93 -7 -48 -9 -50 -40 -53 -18 -2 -57 2 -85 8 -29 7 -81 16 -117
20 -36 5 -99 13 -140 19 -225 31 -364 33 -495 4 -92 -20 -99 -24 -103 -62 -6
-57 51 -97 182 -126 39 -9 81 -21 94 -26 13 -5 32 -9 43 -9 11 0 17 -4 14 -10
-4 -6 19 -10 62 -10 47 0 63 -3 53 -10 -10 -6 7 -9 55 -9 42 1 71 -4 73 -10 2
-6 28 -11 58 -11 30 0 54 -4 54 -10 0 -5 23 -10 50 -10 28 0 50 -4 50 -10 0
-6 35 -10 83 -11 53 -1 73 -4 57 -8 -15 -5 21 -9 95 -12 93 -3 127 -8 148 -21
14 -10 35 -18 47 -18 11 0 20 -4 20 -10 0 -5 11 -10 25 -10 14 0 25 -4 25 -10
0 -5 9 -10 20 -10 11 0 20 -3 20 -7 0 -9 49 -33 67 -33 7 0 13 -3 13 -7 0 -5
23 -19 51 -33 28 -13 55 -30 61 -37 6 -7 17 -13 24 -13 8 0 14 -4 14 -10 0 -5
9 -10 20 -10 11 0 20 -4 20 -9 0 -5 14 -14 30 -21 17 -7 30 -16 30 -21 0 -5 9
-9 20 -9 11 0 20 -4 20 -10 0 -5 11 -10 25 -10 14 0 25 -4 25 -10 0 -5 6 -10
13 -10 30 0 189 -88 234 -130 12 -11 29 -20 38 -20 8 0 15 -4 15 -9 0 -5 8
-11 18 -14 17 -6 72 -37 82 -47 3 -3 19 -12 35 -20 17 -8 41 -25 55 -37 14
-13 28 -23 32 -23 5 0 8 -5 8 -10 0 -6 8 -20 18 -31 11 -10 25 -32 33 -47 8
-15 17 -29 20 -32 3 -3 12 -16 19 -29 14 -27 17 -31 57 -78 16 -17 39 -46 53
-64 14 -18 35 -43 48 -55 12 -13 22 -26 22 -30 0 -4 13 -20 30 -36 16 -15 30
-30 30 -32 0 -2 26 -31 58 -64 31 -33 68 -75 82 -92 14 -17 31 -37 37 -45 7
-7 13 -16 13 -20 0 -8 43 -69 53 -73 4 -2 7 -12 7 -23 0 -10 5 -19 10 -19 6 0
10 -7 10 -15 0 -8 -4 -15 -10 -15 -5 0 -10 -5 -10 -11 0 -6 -31 -62 -70 -125
-38 -63 -70 -117 -70 -122 0 -4 -11 -24 -25 -44 -14 -20 -25 -42 -25 -48 0 -6
-12 -36 -26 -67 -28 -63 -44 -123 -51 -199 -6 -61 19 -122 57 -142 55 -29 171
9 302 99 59 40 82 58 150 118 21 18 44 31 52 28 7 -3 19 -26 27 -51 7 -25 17
-46 21 -46 4 0 8 -7 8 -15 0 -9 11 -38 25 -64 29 -58 58 -141 80 -231 19 -76
44 -152 73 -220 6 -14 16 -43 23 -65 7 -22 17 -44 21 -49 4 -6 8 -20 8 -33 0
-13 5 -23 10 -23 6 0 10 -9 10 -20 0 -11 4 -20 9 -20 5 0 11 -10 14 -22 8 -38
42 -123 50 -126 4 -2 7 -19 7 -37 0 -19 5 -37 10 -40 6 -3 10 -17 10 -30 0
-13 4 -34 9 -47 36 -92 43 -294 15 -413 -9 -38 -19 -94 -21 -122 -3 -29 -9
-53 -14 -53 -12 0 -12 -645 0 -668 5 -9 14 -96 20 -192 11 -194 23 -245 80
-347 50 -91 65 -117 71 -123 3 -3 11 -15 18 -27 6 -13 18 -33 25 -45 16 -28
116 -130 189 -190 31 -27 95 -85 142 -130 210 -203 305 -288 321 -288 6 0 17
-9 25 -20 8 -11 18 -20 23 -20 9 0 93 -56 113 -75 6 -5 28 -23 48 -39 21 -16
50 -41 66 -55 15 -14 38 -33 50 -41 12 -8 35 -26 50 -40 51 -46 70 -60 80 -60
6 0 10 -4 10 -10 0 -5 7 -10 15 -10 8 0 15 -4 15 -8 0 -5 12 -15 28 -23 15 -8
29 -16 32 -19 3 -3 21 -17 40 -30 48 -34 90 -72 90 -82 0 -4 -45 -8 -100 -8
-60 0 -100 -4 -100 -10 0 -5 -18 -10 -40 -10 -22 0 -48 -4 -58 -10 -36 -20
-171 -43 -282 -47 -63 -3 -119 -9 -125 -14 -5 -5 -26 -9 -48 -9 -21 0 -80 -13
-130 -30 -51 -16 -113 -34 -139 -40 -124 -26 -229 -58 -245 -74 -3 -3 -19 -6
-35 -6 -15 0 -28 -4 -28 -10 0 -5 -9 -10 -21 -10 -20 0 -139 -36 -171 -51 -10
-5 -31 -9 -48 -9 -16 0 -30 -4 -30 -10 0 -5 -17 -10 -37 -10 -21 0 -62 -9 -91
-20 -29 -11 -63 -20 -77 -20 -14 0 -25 -4 -25 -10 0 -5 -13 -10 -29 -10 -16 0
-31 -3 -33 -7 -3 -9 -72 -36 -168 -65 -70 -22 -91 -29 -130 -46 -14 -5 -53
-20 -87 -33 -35 -13 -63 -27 -63 -31 0 -5 -7 -8 -15 -8 -8 0 -37 -14 -65 -30
-28 -17 -55 -30 -60 -30 -4 0 -10 -3 -12 -8 -1 -4 -37 -25 -78 -46 -70 -37
-231 -138 -256 -161 -32 -29 -64 -54 -109 -85 -28 -19 -56 -40 -64 -47 -7 -8
-48 -34 -90 -58 -95 -55 -127 -101 -116 -168 4 -23 14 -53 23 -67 9 -14 15
-26 14 -28 -6 -7 26 -28 61 -40 31 -11 47 -11 87 -1 28 7 50 16 50 21 0 4 9 8
20 8 11 0 20 4 20 9 0 5 8 11 18 14 17 6 72 37 82 47 3 3 23 18 45 35 22 16
42 31 45 34 19 21 111 91 119 91 6 0 11 5 11 10 0 6 7 10 15 10 8 0 15 5 15
10 0 6 5 10 10 10 12 0 73 41 78 53 2 4 12 7 23 7 10 0 19 5 19 10 0 6 9 10
19 10 11 0 21 3 23 8 2 4 23 18 48 31 174 94 207 110 222 111 9 0 18 4 20 8 4
9 170 63 216 70 17 2 32 8 32 13 0 5 9 9 19 9 11 0 22 4 25 9 3 4 27 14 53 21
27 7 52 17 58 21 5 5 24 9 42 9 18 0 33 5 33 10 0 6 10 10 23 10 19 1 56 10
240 61 26 7 47 17 47 21 0 4 10 8 23 8 28 0 208 57 222 71 5 5 21 9 36 9 15 0
31 4 34 10 3 5 19 10 35 10 15 0 57 9 92 20 34 11 73 20 86 20 12 0 22 5 22
10 0 6 15 10 34 10 19 0 38 5 41 10 3 6 42 10 86 10 96 0 289 32 379 63 62 21
80 22 386 22 l321 0 54 -34 c30 -19 71 -43 92 -54 20 -12 37 -24 37 -29 0 -4
5 -8 12 -8 18 0 138 -62 138 -72 0 -4 6 -8 14 -8 7 0 108 -93 223 -207 256
-253 299 -293 312 -293 6 0 11 -4 11 -9 0 -5 8 -11 18 -14 21 -7 71 -37 90
-55 7 -6 21 -16 30 -21 9 -5 32 -35 51 -68 48 -82 85 -137 94 -141 4 -2 7 -12
7 -23 0 -10 4 -19 8 -19 5 0 15 -12 23 -27 8 -16 22 -35 31 -44 10 -9 18 -19
18 -23 0 -7 75 -81 125 -124 l27 -23 -26 -104 c-14 -57 -26 -116 -26 -129 0
-14 -4 -28 -10 -31 -5 -3 -10 -26 -10 -51 0 -24 -4 -44 -8 -44 -4 0 -15 -51
-25 -112 -21 -135 -24 -640 -5 -828 6 -63 12 -264 12 -446 1 -232 5 -335 13
-345 15 -18 22 -89 32 -289 5 -111 13 -182 25 -218 14 -43 46 -256 46 -309 0
-23 -256 -14 -630 23 -141 14 -441 54 -505 69 -11 2 -78 15 -150 29 -327 63
-740 165 -950 235 -320 106 -716 257 -880 336 -317 152 -565 276 -596 297 -19
14 -65 41 -100 61 -240 131 -779 488 -861 569 -9 9 -29 25 -45 34 -95 61 -387
309 -628 534 -309 289 -736 762 -888 985 -15 22 -43 58 -62 80 -90 102 -455
667 -575 890 -24 44 -46 82 -50 85 -14 9 -266 531 -268 554 0 5 -5 12 -10 15
-13 8 -147 345 -228 571 -164 459 -270 872 -368 1435 -2 11 -9 47 -15 80 -56
317 -98 974 -87 1375 13 452 59 947 111 1180 8 36 31 151 51 255 58 305 207
879 245 944 5 9 34 90 65 181 64 188 212 562 226 571 5 3 10 9 9 12 -1 22 228
492 293 602 30 50 84 144 122 210 104 182 408 637 511 765 6 8 52 67 101 130
295 380 721 822 1127 1170 348 298 812 624 1195 841 47 26 91 53 98 59 18 16
317 169 452 231 63 30 118 57 121 62 3 5 8 8 10 6 2 -1 22 7 44 18 65 33 431
178 571 226 71 25 145 52 164 60 162 69 736 216 1185 302 288 56 662 95 1130
119 145 7 698 -4 889 -19z m-1737 -887 c-3 -7 -5 -2 -5 12 0 14 2 19 5 13 2
-7 2 -19 0 -25z m2004 -1793 c34 -18 249 -231 249 -247 0 -6 3 -9 6 -6 3 4 18
-7 33 -23 16 -16 35 -29 44 -29 8 0 17 -3 19 -7 5 -12 91 -53 111 -53 9 0 17
-4 17 -10 0 -5 8 -10 18 -10 10 0 22 -4 28 -8 25 -23 108 -46 189 -53 50 -3
122 -16 160 -28 59 -17 97 -20 247 -21 107 0 179 -4 183 -10 3 -5 17 -10 30
-10 13 0 27 -4 30 -10 4 -6 60 -10 136 -10 79 0 129 -4 129 -10 0 -5 18 -10
40 -10 22 0 40 -4 40 -8 0 -18 182 -34 318 -27 112 5 145 4 181 -9 24 -9 54
-16 67 -16 13 0 24 -4 24 -10 0 -5 24 -10 54 -10 30 0 58 -4 61 -10 3 -5 20
-10 37 -10 28 0 128 -29 168 -49 16 -8 176 -59 275 -87 33 -10 62 -20 65 -23
3 -3 17 -12 33 -20 15 -8 27 -18 27 -23 0 -4 9 -8 20 -8 11 0 20 -4 20 -10 0
-5 7 -10 15 -10 8 0 15 -3 15 -7 0 -5 27 -19 60 -33 33 -14 60 -28 60 -32 0
-5 9 -8 19 -8 11 0 21 -3 23 -8 4 -10 123 -72 138 -72 14 0 113 -68 118 -82 2
-4 8 -8 13 -8 6 0 21 -11 34 -24 14 -14 38 -33 55 -42 16 -10 30 -22 30 -26 0
-4 6 -8 13 -8 8 0 34 -19 59 -42 25 -24 75 -71 112 -105 36 -35 66 -65 66 -68
0 -3 25 -30 55 -60 30 -31 55 -59 55 -63 0 -4 11 -19 25 -34 29 -32 95 -151
95 -173 0 -8 5 -15 10 -15 6 0 10 -9 10 -19 0 -11 4 -21 8 -23 12 -5 52 -108
52 -134 0 -12 5 -26 10 -29 6 -3 10 -19 10 -36 0 -16 5 -29 10 -29 6 0 10 -11
10 -25 0 -14 9 -43 20 -65 14 -27 20 -62 22 -115 1 -42 5 -78 10 -81 14 -9 10
-94 -4 -94 -16 0 -147 -39 -170 -51 -10 -5 -27 -9 -37 -9 -11 0 -23 -4 -26
-10 -3 -5 -16 -10 -28 -10 -12 0 -46 -9 -75 -20 -29 -11 -61 -20 -72 -20 -11
0 -20 -4 -20 -10 0 -5 -16 -10 -35 -10 -19 0 -35 -4 -35 -10 0 -5 -9 -10 -20
-10 -10 0 -45 -7 -77 -16 -32 -9 -94 -20 -138 -25 -169 -19 -185 -21 -185 -30
0 -5 -18 -9 -40 -9 -22 0 -40 -4 -40 -9 0 -4 -19 -11 -42 -15 -24 -3 -65 -10
-93 -16 -88 -18 -356 -32 -500 -25 -226 11 -238 10 -273 -10 -40 -24 -56 -70
-49 -146 6 -73 21 -89 84 -89 35 0 44 -3 33 -10 -11 -7 0 -10 37 -10 28 0 53
-5 55 -11 5 -14 570 -13 618 1 19 5 54 10 77 10 24 0 43 5 43 10 0 6 20 10 45
10 25 0 45 4 45 9 0 11 130 24 164 15 23 -6 38 -34 17 -34 -4 0 -19 -10 -32
-22 -14 -13 -37 -31 -52 -41 -15 -9 -27 -24 -27 -33 0 -8 -4 -12 -10 -9 -18
11 -80 -32 -80 -55 0 -15 -46 -60 -54 -53 -3 4 -6 1 -6 -5 0 -7 -13 -26 -30
-44 -16 -17 -30 -35 -30 -40 0 -4 -14 -22 -30 -40 -17 -17 -41 -45 -53 -61
-12 -16 -41 -49 -64 -73 -24 -24 -43 -50 -43 -59 0 -8 -3 -15 -8 -15 -4 0 -18
-18 -32 -40 -14 -22 -28 -40 -32 -40 -5 0 -8 -7 -8 -15 0 -9 -10 -26 -22 -39
-25 -25 -33 -36 -88 -106 -49 -64 -54 -69 -66 -83 -5 -7 -13 -20 -17 -29 -13
-35 -50 -49 -103 -39 -96 18 -172 -11 -329 -130 -123 -92 -223 -194 -339 -342
-84 -109 -100 -135 -120 -192 -10 -27 -22 -58 -27 -67 -13 -25 -11 -89 4 -121
13 -29 61 -57 98 -57 54 0 161 39 301 111 106 54 128 59 128 29 0 -11 -4 -20
-10 -20 -5 0 -10 -13 -10 -28 0 -15 -5 -33 -11 -39 -7 -7 -13 -66 -16 -145 -4
-123 -22 -245 -44 -293 -21 -48 -29 -170 -29 -470 0 -364 -15 -741 -31 -800
-6 -22 -13 -55 -16 -72 -3 -18 -9 -33 -14 -33 -5 0 -9 -18 -9 -40 0 -22 -4
-40 -10 -40 -5 0 -10 -14 -10 -31 0 -36 -36 -196 -50 -221 -6 -10 -10 -29 -10
-43 0 -14 -4 -25 -10 -25 -5 0 -10 -8 -10 -18 0 -11 -9 -45 -20 -77 -11 -32
-20 -69 -20 -82 0 -12 -4 -23 -10 -23 -5 0 -10 -9 -10 -19 0 -21 -149 -324
-162 -329 -4 -2 -8 -10 -8 -18 0 -8 -4 -14 -10 -14 -5 0 -10 -6 -10 -13 0 -8
-8 -21 -18 -30 -10 -9 -24 -32 -32 -52 -8 -19 -17 -35 -22 -35 -4 0 -8 -5 -8
-10 0 -10 -12 -29 -60 -94 -35 -49 -172 -176 -189 -176 -5 0 -48 -37 -94 -83
-136 -131 -173 -164 -237 -207 -12 -8 -28 -21 -36 -27 -7 -7 -17 -13 -22 -13
-9 0 -133 -61 -142 -70 -3 -3 -36 -21 -75 -40 -38 -19 -72 -38 -75 -41 -3 -4
-50 -27 -105 -53 -144 -68 -184 -89 -205 -109 -11 -9 -23 -17 -29 -17 -5 0
-11 -4 -13 -8 -1 -5 -25 -23 -53 -42 -27 -18 -52 -36 -55 -39 -3 -3 -18 -15
-35 -27 -108 -74 -142 -100 -165 -121 -14 -13 -43 -36 -65 -51 -22 -15 -41
-30 -43 -34 -2 -5 -10 -8 -18 -8 -8 0 -14 -4 -14 -10 0 -5 -4 -10 -10 -10 -19
0 -212 -186 -354 -342 -33 -36 -80 -79 -105 -97 -60 -40 -211 -193 -211 -213
0 -4 -10 -17 -23 -30 -12 -13 -40 -50 -62 -83 -51 -77 -98 -139 -107 -143 -5
-2 -8 -10 -8 -17 0 -16 -42 -99 -52 -103 -5 -2 -8 -15 -8 -28 0 -14 -4 -22
-10 -19 -5 3 -10 -2 -10 -13 0 -10 -16 -51 -34 -90 -29 -59 -38 -70 -55 -65
-11 3 -23 13 -26 23 -3 10 -17 30 -30 46 -14 16 -25 35 -25 42 0 6 -4 12 -10
12 -5 0 -10 4 -10 9 0 6 -13 30 -30 54 -16 25 -30 52 -30 61 0 16 -10 29 -66
89 -35 37 -83 77 -93 77 -5 0 -11 4 -13 8 -1 5 -32 26 -68 48 -36 21 -100 74
-144 117 -44 42 -80 77 -82 77 -1 0 -41 38 -89 85 -48 47 -91 85 -96 85 -5 0
-9 5 -9 11 0 17 -138 149 -155 149 -8 0 -15 3 -15 8 0 4 -21 19 -47 32 -27 14
-49 28 -51 33 -2 4 -10 7 -19 7 -8 0 -46 20 -84 45 -38 25 -74 45 -79 45 -6 0
-10 4 -10 8 0 5 -12 15 -27 23 -16 8 -35 22 -44 31 -9 10 -24 18 -33 18 -9 0
-16 5 -16 10 0 6 -7 10 -15 10 -8 0 -15 5 -15 10 0 6 -6 10 -13 10 -8 0 -22 9
-32 20 -10 11 -26 20 -37 20 -10 0 -18 3 -18 8 0 4 -36 30 -80 57 -44 27 -80
53 -80 57 0 5 -6 8 -12 8 -7 0 -27 14 -45 30 -18 17 -35 30 -38 30 -3 0 -20
13 -38 30 -18 16 -36 30 -40 30 -4 0 -19 10 -32 22 -39 37 -50 45 -86 63 -19
10 -36 21 -39 24 -3 3 -27 24 -55 45 -27 22 -67 57 -88 78 -21 21 -43 38 -49
38 -5 0 -22 13 -36 28 -15 15 -43 39 -62 52 -19 13 -37 27 -40 31 -3 3 -45 33
-95 65 -49 32 -127 95 -171 139 -80 78 -169 157 -186 163 -4 2 -8 10 -8 17 0
7 -4 15 -10 17 -9 3 -106 89 -180 158 -20 19 -52 58 -71 85 -19 28 -37 52 -41
53 -5 2 -8 12 -8 23 0 10 -4 19 -10 19 -5 0 -10 7 -10 16 0 8 -7 22 -15 31 -9
8 -19 28 -22 44 -3 16 -9 29 -14 29 -5 0 -9 64 -9 143 0 101 -4 147 -12 156
-16 15 -14 709 2 725 6 6 10 29 10 52 0 25 5 44 13 47 17 6 17 441 0 459 -7 6
-13 31 -13 55 0 24 -4 43 -10 43 -5 0 -10 10 -10 22 0 23 -16 81 -31 110 -5
10 -9 22 -9 28 0 8 -11 35 -60 145 -5 11 -19 45 -30 75 -12 30 -26 63 -31 72
-5 10 -9 26 -9 36 0 10 -4 22 -8 28 -16 17 -52 116 -52 140 0 13 -4 24 -10 24
-5 0 -10 18 -10 39 0 22 -4 42 -9 45 -5 3 -11 18 -14 33 -2 16 -12 48 -20 73
-9 25 -19 57 -22 72 -3 15 -11 33 -18 40 -12 13 -19 27 -51 100 -37 84 -34
100 54 293 15 33 35 77 44 97 9 20 21 40 26 43 6 3 10 15 10 26 0 10 4 19 9
19 5 0 11 8 15 18 3 9 17 35 30 57 14 22 25 52 26 68 0 22 -4 27 -25 27 -28 0
-84 -46 -105 -87 -8 -15 -18 -30 -21 -33 -3 -3 -21 -32 -39 -65 -73 -133 -140
-197 -140 -134 0 10 -4 19 -10 19 -5 0 -10 6 -10 13 0 18 -24 67 -32 67 -5 0
-8 9 -8 20 0 11 -4 20 -9 20 -5 0 -13 9 -16 20 -3 11 -13 20 -21 20 -8 0 -14
4 -14 8 0 5 -9 20 -20 33 -51 61 -110 147 -110 159 0 6 -4 10 -10 10 -5 0 -10
6 -10 13 0 7 -9 23 -20 35 -11 12 -20 26 -20 32 0 5 -4 10 -10 10 -5 0 -10 5
-10 11 0 6 -13 24 -30 39 -16 15 -30 32 -30 38 0 5 -41 51 -90 103 -50 51 -90
96 -90 100 0 5 -20 29 -45 53 -25 25 -45 50 -45 56 0 6 -4 8 -10 5 -5 -3 -10
-1 -10 4 0 6 -20 37 -44 68 -24 32 -51 73 -61 92 -9 19 -28 46 -41 60 -14 14
-23 35 -22 46 3 19 12 20 233 23 127 1 246 7 265 12 19 6 49 10 67 10 17 0 35
5 38 10 3 6 18 10 33 10 15 0 47 7 72 16 25 9 69 18 98 21 29 3 55 10 58 14 3
5 34 9 70 9 35 0 64 4 64 9 0 5 24 11 53 14 57 4 170 36 175 49 2 4 12 8 23 8
10 0 19 5 19 10 0 6 6 10 14 10 30 0 104 55 114 85 19 56 -8 151 -53 185 -49
37 -115 54 -115 30 0 -5 -6 -10 -14 -10 -7 0 -40 -13 -72 -29 -76 -38 -137
-54 -309 -81 -77 -12 -148 -26 -157 -31 -9 -5 -28 -9 -42 -9 -14 0 -26 -4 -26
-9 0 -5 -17 -11 -37 -14 -21 -3 -58 -10 -83 -17 -41 -10 -418 -31 -570 -31
-103 0 -240 12 -240 22 0 5 -26 9 -57 10 -44 1 -52 3 -33 9 19 6 12 8 -30 9
-31 1 -60 5 -65 10 -6 5 -39 16 -75 25 -97 24 -165 52 -232 96 -33 22 -66 40
-74 40 -8 0 -14 5 -14 10 0 6 -7 10 -15 10 -8 0 -15 5 -15 10 0 6 -9 10 -20
10 -11 0 -20 5 -20 10 0 6 -9 10 -20 10 -11 0 -20 5 -20 10 0 6 -9 10 -20 10
-11 0 -20 5 -20 10 0 6 -12 10 -26 10 -14 0 -23 4 -19 10 4 6 -7 10 -24 10
-17 0 -31 5 -31 10 0 6 -8 10 -17 10 -22 1 -53 23 -53 39 0 6 4 19 9 29 12 24
31 107 31 137 0 14 3 25 8 25 4 0 20 30 36 68 15 37 32 75 37 84 5 10 9 25 9
33 0 8 4 15 8 15 5 0 19 32 32 71 13 38 27 72 32 75 4 3 8 16 8 30 0 13 5 24
10 24 6 0 10 4 10 10 0 9 69 122 89 146 4 6 26 35 47 65 21 30 41 56 44 59 9
9 40 64 58 103 9 20 20 37 24 37 5 0 8 5 8 11 0 12 48 62 91 94 29 23 134 112
161 138 10 9 20 17 23 17 3 0 13 6 21 13 8 6 20 17 27 22 28 23 67 45 82 45 8
0 15 5 15 10 0 6 5 10 11 10 7 0 53 19 103 43 50 24 138 58 196 76 58 19 113
38 122 42 10 5 31 9 48 9 16 0 30 5 30 10 0 6 11 10 24 10 13 0 45 9 71 20 26
11 58 20 71 20 13 0 24 5 24 10 0 6 26 10 59 10 33 0 63 5 66 10 3 6 19 10 34
10 16 0 48 7 72 16 24 9 80 20 124 25 115 12 180 24 260 46 39 11 117 26 175
33 58 6 118 16 134 21 16 5 43 9 60 9 17 0 65 7 106 16 80 17 181 15 415 -7
120 -12 120 -12 246 19 69 18 142 32 162 32 20 0 39 5 42 10 3 6 44 10 91 10
49 0 84 4 84 10 0 6 16 10 35 10 20 0 55 9 77 20 23 11 48 20 55 20 7 0 13 4
13 8 0 13 91 60 160 82 66 21 180 80 180 92 0 5 7 8 15 8 8 0 15 5 15 10 0 6
5 10 10 10 19 0 73 44 169 138 52 50 103 92 113 92 17 0 62 -30 138 -90 14
-11 31 -20 38 -20 6 0 12 -4 12 -10 0 -5 7 -10 15 -10 8 0 15 -4 15 -10 0 -5
11 -10 25 -10 14 0 25 -4 25 -10 0 -5 16 -10 35 -10 19 0 35 -4 35 -10 0 -5
15 -10 33 -10 17 -1 59 -8 92 -16 33 -9 76 -18 95 -21 19 -3 38 -11 42 -17 10
-16 656 -16 666 0 4 7 43 14 87 17 44 4 105 11 135 16 30 6 72 13 93 17 20 3
37 10 37 15 0 5 18 9 40 9 22 0 40 5 40 10 0 6 18 10 40 10 22 0 40 5 40 10 0
6 9 10 20 10 47 0 205 77 257 126 7 6 32 24 57 40 47 30 64 55 61 92 -2 26 6
27 46 7z m6633 -2337 c6 -4 7 -8 2 -8 -4 0 -1 -11 8 -25 9 -13 16 -31 16 -40
0 -8 4 -23 9 -33 22 -40 52 -115 85 -210 19 -56 40 -110 45 -120 43 -81 198
-653 266 -982 20 -96 39 -184 41 -195 15 -60 55 -324 73 -476 80 -681 77
-1358 -9 -2045 -18 -141 -49 -338 -64 -399 -2 -11 -19 -87 -36 -170 -154 -740
-350 -1310 -676 -1970 -298 -605 -666 -1163 -1096 -1664 -398 -463 -841 -878
-1343 -1258 -175 -132 -687 -463 -824 -533 -25 -12 -51 -29 -59 -36 -8 -8
-138 -76 -291 -150 -152 -75 -296 -146 -321 -159 -69 -35 -384 -160 -585 -232
-453 -163 -773 -247 -1400 -369 -245 -48 -700 -92 -1111 -109 l-151 -6 -6 132
c-6 132 -34 299 -49 299 -4 0 -8 70 -8 155 0 85 -4 174 -9 197 -6 24 -16 68
-23 98 -9 37 -14 143 -15 330 0 151 -4 478 -8 727 -6 437 -6 455 14 535 12 45
21 94 21 110 0 15 5 28 10 28 6 0 10 23 10 50 0 28 5 50 10 50 6 0 10 13 10
30 0 16 9 53 20 82 11 29 20 63 20 76 0 12 5 22 10 22 6 0 10 14 10 30 0 17 5
30 10 30 6 0 10 6 10 13 0 25 63 204 96 274 19 39 34 76 34 82 0 6 3 11 8 11
4 0 13 15 21 32 7 18 26 50 42 70 16 20 29 42 29 47 0 6 5 11 10 11 6 0 10 7
10 15 0 8 14 30 30 48 17 19 30 38 30 41 0 4 9 17 21 29 11 12 30 35 42 51 30
38 79 88 107 106 44 30 106 85 165 148 163 176 275 274 345 306 14 6 36 21 50
33 29 26 132 52 138 34 2 -6 7 -9 11 -7 7 5 124 -18 156 -31 18 -7 17 -8 -10
-14 -20 -4 -3 -7 49 -8 43 0 95 -5 115 -11 129 -34 314 -58 631 -81 74 -5 160
-14 190 -20 30 -5 72 -13 93 -16 20 -3 37 -9 37 -14 0 -5 18 -9 41 -9 24 0 38
-4 34 -10 -4 -6 7 -10 25 -10 16 0 39 -4 50 -10 11 -5 29 -14 40 -20 11 -5 31
-10 45 -10 14 0 25 -4 25 -10 0 -5 25 -10 55 -10 30 0 55 -4 55 -9 0 -5 35
-11 78 -14 188 -12 296 -38 429 -103 50 -24 96 -44 102 -44 6 0 19 -4 29 -9
25 -13 158 -30 312 -40 129 -8 162 -16 197 -48 8 -7 27 -20 43 -30 17 -9 30
-21 30 -25 0 -4 5 -8 10 -8 6 0 28 -11 48 -25 21 -14 63 -34 93 -44 103 -37
154 -62 179 -89 46 -50 137 -112 165 -112 8 0 15 -3 15 -8 0 -13 114 -70 135
-68 27 3 84 34 109 60 44 44 59 122 34 169 -15 29 -79 87 -95 87 -7 0 -13 3
-13 8 0 4 -19 15 -43 24 -23 10 -63 37 -88 60 -64 58 -80 71 -109 84 -14 6
-46 21 -73 33 -26 11 -56 21 -67 21 -10 0 -22 5 -25 10 -3 6 -15 10 -26 10
-10 0 -19 5 -19 10 0 6 -5 10 -12 10 -6 0 -42 22 -79 49 -89 66 -154 101 -184
101 -14 0 -25 5 -25 10 0 6 -32 10 -77 10 -164 0 -369 27 -398 52 -5 4 -17 8
-28 8 -10 0 -15 5 -12 10 3 6 -4 10 -17 10 -13 0 -28 4 -33 8 -16 14 -130 52
-157 52 -13 0 -28 4 -33 9 -6 5 -32 11 -60 14 -249 24 -364 43 -465 79 -89 31
-192 59 -240 64 -25 3 -54 9 -65 14 -27 12 -137 20 -382 26 -117 3 -203 9
-203 15 0 5 -37 9 -82 10 -60 1 -76 3 -58 10 27 9 -180 5 -259 -5 -55 -7 -76
6 -58 37 16 27 59 66 74 67 6 0 13 4 15 9 4 12 155 91 174 91 8 0 14 5 14 10
0 6 7 10 16 10 8 0 36 12 62 27 65 39 172 96 272 146 47 23 86 45 88 50 2 4
10 7 18 7 8 0 14 3 14 8 0 4 18 18 40 32 22 14 40 28 40 32 0 5 5 8 10 8 6 0
48 37 94 83 124 122 174 167 185 167 6 0 11 5 11 10 0 6 4 10 10 10 21 0 190
159 190 178 0 7 5 10 10 7 6 -3 10 0 10 9 0 8 3 16 8 18 10 4 52 65 52 76 0 4
8 17 18 28 9 10 27 37 39 59 12 22 42 71 67 108 25 38 46 75 46 83 0 8 5 14
10 14 6 0 10 9 10 20 0 11 5 20 10 20 6 0 10 6 10 13 0 12 40 98 51 107 14 13
51 111 104 275 31 99 61 188 66 197 5 10 9 29 9 43 0 14 5 25 10 25 6 0 10 17
10 38 0 20 9 70 20 110 11 39 20 83 20 97 0 14 5 25 10 25 6 0 10 15 10 34 0
19 5 36 11 38 15 5 29 328 37 867 5 334 10 435 20 439 6 2 12 18 12 36 0 18 5
37 10 42 6 6 15 82 20 170 11 188 15 204 76 324 55 109 69 135 77 138 4 2 7
14 7 27 0 13 4 26 8 29 4 3 14 28 22 56 8 28 18 53 22 56 4 3 8 18 8 35 0 16
5 29 10 29 6 0 10 5 10 11 0 30 32 40 167 48 136 9 173 16 173 31 0 14 -44 20
-162 20 l-118 0 0 25 c0 14 3 25 8 25 4 0 13 14 20 30 8 17 19 36 26 43 7 6
31 39 53 72 23 33 50 70 62 82 12 12 21 27 21 33 0 5 3 10 8 10 4 0 18 18 32
40 14 22 28 40 32 40 5 0 8 6 8 14 0 8 3 16 8 18 4 2 25 32 46 68 22 36 53 77
68 92 15 14 28 31 28 38 0 6 18 29 40 50 22 21 40 44 40 50 0 6 5 8 10 5 6 -3
10 -1 10 5 0 12 37 67 61 90 8 8 33 51 56 95 120 236 126 249 121 306 -3 26
-2 47 1 47 7 -2 84 34 91 43 3 3 39 15 80 28 103 31 162 51 182 62 10 5 29 9
43 9 14 0 25 5 25 10 0 6 8 10 18 10 11 0 45 9 77 20 32 11 69 20 82 20 12 0
23 5 23 10 0 6 11 10 25 10 14 0 33 4 43 9 35 19 183 57 265 68 20 3 40 9 43
14 3 5 18 9 34 9 17 0 49 4 72 10 301 70 257 65 608 68 179 1 372 3 430 4 58
0 278 -3 489 -7 l384 -8 -6 24 c-4 20 -33 95 -67 174 -18 43 -40 106 -39 113
0 4 7 -9 16 -28 8 -19 20 -38 27 -42z m-3974 -1712 c0 -11 -26 -73 -58 -136
-56 -113 -58 -115 -102 -128 -243 -71 -300 -101 -312 -165 -8 -41 9 -43 45 -5
38 40 62 52 142 74 128 34 138 35 146 23 9 -15 -56 -152 -91 -192 -24 -28
-254 -147 -283 -147 -7 0 -18 -5 -24 -11 -6 -6 -38 -13 -72 -16 -82 -8 -95 3
-88 77 10 109 87 223 309 450 109 113 220 188 295 199 67 10 93 3 93 -23z
m-7720 -337 c16 -22 36 -64 46 -92 9 -29 20 -56 25 -61 5 -6 9 -20 9 -33 0
-13 5 -23 10 -23 35 0 -17 -67 -100 -130 -25 -19 -46 -38 -48 -42 -2 -5 -10
-8 -17 -8 -7 0 -15 -4 -17 -9 -6 -15 -149 -91 -172 -91 -12 0 -30 6 -41 13
-16 12 -17 25 -12 113 4 78 12 115 35 175 34 86 102 223 139 282 l25 39 44
-46 c25 -26 58 -65 74 -87z m4192 -9126 c-40 -2 -103 -2 -140 0 -37 2 -4 3 73
3 77 0 107 -2 67 -3z"/>
<path d="M2356 9836 c-15 -13 -26 -30 -26 -37 0 -12 -96 -187 -140 -254 -75
-115 -215 -314 -230 -325 -3 -3 -17 -21 -30 -40 -13 -19 -27 -37 -30 -40 -3
-3 -27 -32 -55 -65 -199 -240 -380 -395 -458 -395 -29 0 -38 6 -55 34 -23 39
-40 155 -52 354 -12 205 -33 267 -82 245 -21 -9 -21 -12 -20 -319 2 -334 5
-361 56 -414 36 -39 75 -45 144 -24 178 55 397 255 667 609 38 50 71 92 74 95
15 13 61 81 96 140 173 296 215 379 215 427 0 28 -3 33 -24 33 -14 0 -36 -11
-50 -24z"/>
<path d="M2911 9756 c-27 -32 -8 -41 90 -42 221 -4 406 -14 432 -25 21 -9 31
-9 40 0 40 40 -109 70 -384 78 -140 4 -167 2 -178 -11z"/>
<path d="M2768 9492 c-21 -15 -38 -31 -38 -35 0 -5 -6 -14 -12 -22 -7 -7 -22
-25 -33 -41 -21 -29 -73 -93 -128 -157 -17 -20 -39 -40 -49 -42 -9 -3 -24 -22
-34 -43 -15 -33 -88 -140 -104 -152 -3 -3 -34 -42 -68 -87 -111 -147 -133
-215 -90 -276 73 -105 216 -124 466 -63 142 35 219 65 229 92 11 29 -12 33
-72 12 -70 -24 -147 -37 -263 -45 -128 -8 -226 24 -264 85 l-21 34 23 49 c13
27 27 49 32 49 4 0 8 5 8 11 0 10 92 134 147 197 l28 32 345 3 c286 2 350 6
373 18 26 14 27 16 11 30 -14 11 -66 14 -258 16 -286 2 -385 9 -392 28 -3 7
14 38 38 67 24 30 61 80 83 112 22 32 52 70 68 84 26 24 35 56 19 65 -4 3 -24
-7 -44 -21z"/>
<path d="M1110 9423 c-8 -3 -28 -20 -45 -38 -70 -74 -143 -155 -180 -200 -22
-26 -50 -57 -61 -69 -12 -11 -54 -59 -93 -106 -40 -47 -84 -98 -99 -115 -15
-16 -43 -50 -62 -75 -19 -25 -40 -51 -47 -58 -7 -7 -29 -34 -50 -59 -21 -26
-45 -54 -53 -63 -9 -9 -29 -34 -45 -55 -17 -22 -32 -42 -35 -45 -7 -7 -27 -39
-50 -83 -17 -30 -19 -42 -9 -53 21 -26 68 -14 113 28 21 19 21 20 2 33 -18 14
-18 15 -1 42 10 15 35 45 54 67 20 21 41 44 46 50 61 68 191 212 197 216 3 3
28 32 55 66 26 33 71 87 99 120 29 32 93 107 144 167 50 59 97 107 104 107 19
0 42 30 56 74 10 32 10 40 -1 47 -16 10 -18 10 -39 2z"/>
<path d="M10415 9732 c-89 -37 -179 -99 -269 -185 -26 -24 -53 -39 -78 -43
-37 -6 -65 -33 -103 -96 -5 -9 -50 -76 -99 -148 -48 -73 -91 -141 -93 -151 -3
-10 -9 -19 -14 -19 -5 0 -9 -6 -9 -14 0 -8 -3 -16 -7 -18 -9 -3 -16 -17 -118
-213 -40 -77 -80 -153 -89 -170 -18 -33 -20 -72 -7 -94 8 -12 14 -12 39 -2 50
21 66 45 197 296 83 158 103 191 221 361 156 226 356 404 454 404 45 0 73 -48
66 -114 -10 -89 -59 -165 -151 -235 -12 -9 -87 -47 -180 -91 -94 -45 -145 -98
-145 -151 0 -21 5 -39 10 -39 6 0 10 -8 10 -17 0 -23 82 -184 128 -253 51 -75
112 -120 164 -120 54 0 108 32 141 84 42 66 35 81 -24 51 -27 -14 -31 -14 -53
2 -14 10 -27 25 -30 33 -6 15 -27 51 -36 60 -3 3 -14 23 -25 44 -11 22 -44 76
-72 120 -29 44 -53 88 -53 98 0 11 11 23 28 29 92 33 249 136 302 196 78 92
103 149 108 256 l4 87 -35 35 c-32 32 -40 35 -88 34 -30 0 -72 -8 -94 -17z"/>
<path d="M5815 9662 c-111 -50 -192 -114 -322 -256 -24 -25 -43 -50 -43 -55 0
-5 -3 -11 -7 -13 -28 -12 -194 -292 -192 -323 1 -16 2 -17 6 -2 2 9 8 17 13
17 4 0 27 30 51 68 40 64 120 173 146 200 7 7 13 17 13 21 0 13 168 178 213
210 24 16 70 42 102 57 93 42 166 22 179 -50 11 -58 -4 -95 -63 -156 -54 -55
-158 -127 -231 -161 -76 -35 -111 -49 -124 -49 -7 0 -29 -15 -49 -33 -56 -50
-53 -90 18 -192 77 -111 123 -157 197 -198 112 -63 221 -82 264 -46 26 22 14
38 -41 55 -30 10 -55 21 -55 26 0 4 -6 8 -14 8 -20 0 -118 98 -151 150 -15 25
-48 71 -73 102 -48 62 -49 82 -5 98 16 6 35 14 43 18 8 5 42 24 75 42 103 57
226 158 262 216 41 64 55 109 51 163 -4 47 -10 59 -39 83 -29 25 -41 28 -99
27 -48 0 -81 -8 -125 -27z"/>
<path d="M7075 9603 c-11 -2 -29 -8 -40 -12 -11 -5 -38 -14 -60 -21 -80 -25
-231 -107 -302 -164 -212 -168 -285 -240 -319 -310 -27 -56 -29 -78 -12 -105
16 -26 41 -12 59 31 16 41 22 48 82 109 74 77 86 62 41 -50 -49 -121 -66 -239
-45 -303 9 -28 21 -40 53 -52 22 -9 50 -14 62 -11 11 3 39 11 61 17 116 33
376 254 511 434 80 106 117 193 117 276 0 58 -4 72 -28 104 -41 54 -104 74
-180 57z m16 -184 c22 -23 29 -41 29 -70 0 -33 -24 -103 -40 -119 -3 -3 -17
-23 -31 -45 -32 -48 -163 -183 -239 -246 -118 -98 -161 -116 -195 -82 -35 34
-6 223 55 368 4 11 13 34 20 52 12 31 91 93 118 93 7 0 12 5 12 10 0 6 5 10
11 10 6 0 27 7 47 16 88 38 97 41 150 43 26 1 41 -6 63 -30z"/>
<path d="M7985 9595 c-16 -8 -55 -25 -85 -38 -149 -66 -177 -80 -234 -114 -99
-61 -148 -123 -127 -161 12 -22 29 -36 120 -97 127 -87 170 -157 137 -227 -34
-72 -143 -161 -301 -248 -118 -65 -180 -107 -183 -123 -6 -31 41 -19 153 38
263 134 413 277 423 402 7 80 -35 139 -158 220 -30 20 -68 49 -85 65 l-30 28
26 24 c31 28 109 72 287 162 72 37 132 71 132 75 0 13 -41 10 -75 -6z"/>
<path d="M9288 9483 c-14 -9 -39 -37 -55 -62 -15 -24 -33 -49 -38 -55 -6 -6
-21 -27 -32 -46 -12 -19 -34 -48 -48 -64 -14 -16 -25 -35 -25 -42 0 -7 -3 -14
-7 -16 -5 -1 -23 -21 -42 -43 -34 -41 -195 -208 -247 -257 -16 -15 -33 -32
-39 -38 -55 -59 -208 -150 -251 -150 -67 0 -111 90 -98 197 7 56 45 197 80
299 28 82 29 94 9 94 -20 0 -94 -155 -137 -285 -28 -86 -32 -114 -33 -200 0
-82 4 -106 20 -132 26 -45 75 -66 128 -58 46 7 177 65 177 77 0 4 5 8 11 8 6
0 26 12 44 28 18 15 47 38 65 51 17 14 73 67 123 118 51 51 98 93 105 93 11 0
12 -14 7 -62 -8 -75 8 -182 30 -204 8 -9 19 -24 25 -33 11 -22 69 -51 100 -51
56 0 160 76 160 116 0 16 -6 14 -52 -18 -30 -21 -76 -23 -100 -4 -30 22 -48
81 -48 158 0 66 20 171 39 208 5 9 12 31 16 50 4 19 16 47 26 62 11 14 19 29
19 33 0 3 24 39 53 78 30 40 62 86 72 103 32 56 0 82 -57 47z"/>
<path d="M5344 9440 c-23 -9 -74 -69 -120 -140 -16 -25 -35 -51 -41 -58 -7 -7
-13 -20 -13 -28 0 -8 -3 -14 -7 -14 -5 0 -13 -10 -19 -23 -6 -12 -28 -53 -49
-92 -21 -38 -42 -77 -46 -85 -22 -39 -126 -260 -137 -290 -7 -19 -20 -50 -28
-68 -27 -62 -9 -111 35 -97 20 6 73 62 101 105 8 13 27 38 43 55 15 18 27 37
27 42 0 5 8 18 18 29 28 32 42 63 32 69 -5 3 -13 -2 -17 -10 -5 -8 -19 -17
-30 -19 -21 -4 -21 -3 -8 34 18 50 63 145 93 193 13 22 43 76 67 120 23 45 66
120 94 167 28 47 51 90 51 96 0 17 -21 23 -46 14z"/>
<path d="M6315 7090 c-50 -7 -94 -20 -152 -46 -17 -8 -34 -14 -37 -14 -11 0
-139 -82 -201 -129 -76 -58 -191 -173 -244 -245 -23 -30 -41 -57 -41 -59 0 -3
-15 -30 -34 -62 -44 -71 -76 -167 -76 -219 1 -65 37 -126 90 -152 67 -34 122
-37 220 -15 174 40 203 53 213 90 12 46 -20 53 -138 32 -103 -18 -171 -7 -212
34 -30 30 -33 39 -33 91 0 47 7 72 40 138 23 45 56 99 76 121 19 22 51 61 72
86 40 50 151 141 210 174 21 11 39 22 42 25 3 3 21 12 40 22 32 15 61 25 161
57 43 14 69 6 69 -20 0 -27 25 -23 55 8 33 36 33 70 -1 83 -28 11 -43 11 -119
0z"/>
<path d="M7438 7093 c-10 -2 -18 -8 -18 -13 0 -5 -18 -27 -39 -50 -40 -43 -45
-76 -11 -67 41 11 44 -4 27 -135 -37 -276 -41 -288 -94 -288 -70 0 -315 -50
-385 -78 -31 -13 -63 -56 -53 -72 9 -14 48 -13 82 4 70 35 139 52 273 67 96
11 114 6 105 -29 -4 -15 -11 -47 -16 -72 -5 -25 -15 -76 -23 -115 -44 -206
-44 -216 -5 -174 13 15 33 53 43 85 11 33 23 64 27 69 4 6 10 26 14 45 4 19
11 41 15 50 4 8 16 42 26 75 23 78 28 83 77 87 54 4 57 22 7 48 -35 18 -41 25
-36 43 46 155 65 477 30 511 -16 17 -17 17 -46 9z"/>
<path d="M10490 7073 c-146 -66 -173 -83 -252 -159 -63 -61 -74 -144 -25 -195
31 -32 79 -69 90 -69 22 0 106 -73 122 -106 42 -88 -10 -130 -220 -179 -38 -9
-86 -20 -105 -26 -82 -22 -129 -31 -187 -38 -89 -9 -142 -64 -98 -101 13 -11
30 -10 93 3 138 30 276 58 330 67 104 18 181 53 244 113 92 86 113 183 60 268
-16 24 -41 53 -56 64 -16 11 -34 26 -41 33 -8 6 -18 12 -24 12 -6 0 -11 5 -11
10 0 6 -5 10 -11 10 -24 0 -79 53 -79 76 0 24 45 74 67 74 6 0 13 3 15 8 3 8
53 32 106 52 31 12 131 9 238 -6 30 -4 43 -2 54 11 19 23 4 44 -51 72 -36 18
-60 22 -134 22 -60 0 -102 -6 -125 -16z"/>
<path d="M9500 7069 c-107 -5 -211 -13 -230 -18 -19 -6 -64 -13 -99 -16 -136
-13 -247 -82 -225 -140 8 -21 31 -19 39 4 9 29 45 48 105 55 30 4 67 9 83 12
46 9 42 -18 -15 -100 -29 -43 -57 -85 -63 -94 -14 -24 -58 -86 -65 -92 -8 -7
-89 -115 -123 -165 -15 -22 -40 -58 -56 -79 -16 -22 -37 -56 -47 -75 -10 -20
-23 -39 -28 -42 -5 -4 -11 -39 -14 -78 -5 -69 -4 -71 26 -99 39 -37 70 -42
265 -42 132 0 164 3 188 17 47 28 35 38 -43 38 -121 1 -282 52 -314 100 -15
24 -15 28 1 72 10 26 22 52 27 58 5 5 31 44 58 86 27 42 62 90 79 108 l29 31
119 0 c185 0 533 22 533 35 0 28 -69 37 -322 42 l-258 6 0 23 c0 13 4 24 9 24
5 0 13 9 16 21 4 12 16 31 26 43 22 25 52 75 73 121 17 36 42 60 74 70 56 17
369 37 400 25 18 -6 40 26 27 39 -18 16 -77 18 -275 10z"/>
<path d="M7225 7012 c-28 -14 -213 -194 -280 -272 -109 -126 -243 -292 -316
-390 -140 -189 -249 -349 -249 -367 0 -7 11 -13 25 -13 33 0 94 62 124 125 20
43 112 176 145 211 6 6 27 30 46 54 67 82 247 301 282 341 13 15 37 44 53 65
89 113 180 202 226 222 23 10 35 21 32 29 -7 17 -50 15 -88 -5z"/>
<path d="M8535 7018 c-221 -55 -445 -236 -445 -361 0 -34 20 -87 33 -87 4 0 7
-5 7 -11 0 -11 44 -71 82 -113 50 -55 31 -80 -109 -147 -143 -69 -138 -94 8
-43 113 40 172 72 197 108 40 58 28 100 -51 185 -44 47 -87 125 -87 156 0 53
120 160 235 210 22 10 51 23 64 29 28 13 118 14 143 2 14 -6 20 -2 27 15 8 20
5 28 -15 47 -27 24 -30 24 -89 10z"/>
<path d="M15274 9842 c-28 -18 -44 -73 -44 -154 0 -46 -5 -112 -11 -148 -11
-73 4 -193 28 -222 18 -21 11 -47 -32 -113 -27 -42 -108 -191 -173 -320 -8
-16 -24 -42 -34 -57 -18 -26 -120 -220 -195 -370 -48 -97 -83 -179 -83 -193 0
-23 28 -37 60 -30 44 10 89 58 141 152 17 32 35 63 39 68 21 28 65 118 97 194
30 74 80 178 161 336 11 22 46 94 77 160 31 66 65 137 74 158 27 56 149 208
200 248 23 19 48 39 55 44 17 14 38 27 150 91 70 40 113 58 150 63 46 5 51 9
54 33 6 55 -56 48 -198 -22 -165 -80 -351 -231 -431 -346 -16 -24 -36 -44 -44
-44 -21 0 -29 43 -21 108 4 32 12 93 17 137 21 173 22 203 6 220 -17 17 -27
18 -43 7z"/>
<path d="M14485 9699 c-59 -17 -170 -85 -224 -137 -8 -8 -32 -25 -54 -39 -46
-29 -88 -72 -157 -163 -19 -25 -45 -56 -57 -69 -12 -13 -30 -39 -40 -58 -9
-18 -21 -33 -25 -33 -5 0 -8 -6 -8 -14 0 -8 -3 -16 -8 -18 -10 -4 -115 -161
-191 -285 -66 -109 -76 -150 -34 -146 13 2 32 12 43 23 18 18 89 128 101 155
6 14 200 309 208 315 3 3 26 31 50 64 43 58 170 191 223 234 94 75 205 106
228 63 17 -32 12 -118 -9 -159 -27 -52 -95 -114 -165 -151 -32 -17 -62 -31
-67 -31 -5 0 -29 -12 -53 -27 -57 -34 -81 -85 -65 -135 34 -103 108 -217 191
-292 60 -55 101 -73 137 -61 22 7 37 38 21 43 -23 8 -58 49 -104 119 -25 39
-46 74 -46 77 0 4 -50 119 -72 163 -15 31 -6 47 41 71 75 39 120 72 183 131
83 79 118 145 125 238 6 70 5 73 -25 102 -25 26 -38 31 -74 30 -24 0 -56 -5
-73 -10z"/>
<path d="M12960 9668 c-36 -10 -60 -25 -60 -37 0 -4 62 -12 138 -19 75 -6 182
-18 237 -26 55 -8 113 -15 128 -16 24 0 26 2 14 14 -19 20 -209 67 -322 81
-27 3 -61 7 -75 10 -14 2 -41 -1 -60 -7z"/>
<path d="M12989 9276 c-2 -2 -39 -9 -82 -15 -75 -10 -127 -32 -127 -53 0 -6
14 -8 33 -5 137 22 247 38 335 46 164 17 160 30 -9 31 -80 0 -148 -2 -150 -4z"/>
<path d="M12632 9230 c-15 -22 -48 -70 -75 -107 -179 -255 -196 -285 -204
-360 -5 -49 -4 -54 24 -80 40 -38 104 -53 224 -53 162 0 519 49 519 72 0 4 6
8 13 8 7 0 18 9 24 19 11 17 9 21 -7 26 -12 4 -26 0 -36 -9 -9 -9 -32 -16 -56
-16 -22 0 -81 -5 -131 -11 -112 -13 -374 1 -427 23 -19 8 -41 27 -49 41 -13
24 -12 32 4 69 11 24 29 56 42 71 13 16 23 35 23 43 0 8 4 14 9 14 5 0 11 8
15 18 6 19 25 49 42 68 19 21 94 171 94 188 0 27 -19 18 -48 -24z"/>
<path d="M9848 4643 c12 -2 30 -2 40 0 9 3 -1 5 -23 4 -22 0 -30 -2 -17 -4z"/>
</g>
</svg>
